<?xml version="1.0" encoding="UTF-8"?>
<svg id="Capa_1" data-name="Capa 1" xmlns="http://www.w3.org/2000/svg" viewBox="0 0 1246.12 1215.85">
  <defs>
    <style>
      .cls-1 {
        fill: #67e67c;
      }
    </style>
  </defs>
  <path class="cls-1" d="M689.18,480.65s260.78-144.48,399.62-60.46c138.84,84.02,168.05,262.32,154.21,420.63s-158.31,293.57-158.31,293.57c0,0-143.97,133.72-395.53,52.26,0,0-263.85,106.05-440.61-86.07-176.76-192.13-86.07-531.81-86.07-531.81,0,0,117.33-340.71,526.68-88.12Z"/>
  <path class="cls-1" d="M692.68,408.41s18.37-266.49,34.26-336.17L744.35,0l97.34,67.63s-133.58,153.34-149.02,340.78Z"/>
  <path class="cls-1" d="M668.01,354.54s-32.79-223.38-419.09-195.71L.95,173.17s-29.72,65.58,243.87,110.67c273.59,45.09,423.19,70.7,423.19,70.7Z"/>
</svg>