<?xml version="1.0" encoding="UTF-8"?>
<svg id="Capa_1" data-name="Capa 1" xmlns="http://www.w3.org/2000/svg" viewBox="0 0 951.58 953.75">
  <defs>
    <style>
      .cls-1 {
        fill: #56b685;
        fill-rule: evenodd;
      }
    </style>
  </defs>
  <path class="cls-1" d="M506.99,376.01s312.82-234.62,433.33,92.31c0,0,56.41,283.33-83.33,402.56s-326.92,76.92-350,53.85c0,0-185.9,98.72-360.26-67.95s-32.05-474.36-32.05-474.36c0,0,100-187.18,392.31-6.41Z"/>
  <path class="cls-1" d="M513.4,300.05s29.49-179.49,115.38-247.44L558.27,0s-75.64,269.28-44.87,300.05Z"/>
  <path class="cls-1" d="M0,141.04h92.31s371.79-69.23,413.46,146.15c0,0-292.38-46.2-322.15-53.87S25.64,208.99,0,141.04Z"/>
</svg>